<svg xmlns="http://www.w3.org/2000/svg" width="1600" height="900" preserveAspectRatio="xMidYMid slice" viewBox="0 0 1600 900"><defs><radialGradient id="sun" cx="0" cy="0" r="1" gradientTransform="translate(1240 170) scale(240)" gradientUnits="userSpaceOnUse" patternTransform="matrix(240,0,0,240,1240,170)"><stop offset="0" stop-color="#fff7d6" stop-opacity=".96"/><stop offset=".34" stop-color="#ffe6a3" stop-opacity=".7"/><stop offset="1" stop-color="#ffd27a" stop-opacity="0"/></radialGradient><radialGradient id="haze" cx="50%" cy="18%" r="70%"><stop offset="0" stop-color="#fff" stop-opacity=".55"/><stop offset=".55" stop-color="#fff" stop-opacity=".16"/><stop offset="1" stop-color="#fff" stop-opacity="0"/></radialGradient><radialGradient id="vignette" cx="50%" cy="50%" r="74%"><stop offset="0" stop-opacity="0"/><stop offset=".68" stop-opacity=".04"/><stop offset="1" stop-opacity=".16"/></radialGradient><linearGradient id="sky" x1="0" x2="0" y1="0" y2="1"><stop offset="0" stop-color="#eaf6ff"/><stop offset=".42" stop-color="#d9f1ff"/><stop offset=".78" stop-color="#bfe7ff"/><stop offset="1" stop-color="#a3d8fb"/></linearGradient><linearGradient id="water" x1="0" x2="0" y1="0" y2="1"><stop offset="0" stop-color="#1c86b5" stop-opacity=".84"/><stop offset=".46" stop-color="#0f5f88" stop-opacity=".92"/><stop offset="1" stop-color="#083b5a" stop-opacity=".98"/></linearGradient><linearGradient id="skylineFade" x1="0" x2="0" y1="0" y2="1"><stop offset="0" stop-color="#0b2f44" stop-opacity=".32"/><stop offset="1" stop-color="#0b2f44" stop-opacity="0"/></linearGradient><filter id="grain" width="140%" height="140%" x="-20%" y="-20%"><feTurbulence baseFrequency=".8" numOctaves="3" seed="7" stitchTiles="stitch" type="fractalNoise"/><feColorMatrix values="0 0 0 0 0 0 0 0 0 0 0 0 0 0 0 0 0 0 0.26 0"/></filter><filter id="waves" width="140%" height="140%" x="-20%" y="-20%"><feTurbulence baseFrequency=".012" numOctaves="2" result="noise" seed="11" type="fractalNoise"/><feDisplacementMap in="SourceGraphic" in2="noise" scale="32" xChannelSelector="R" yChannelSelector="G"/></filter></defs><path fill="url(#sky)" d="M0 0h1600v900H0Z"/><path fill="url(#sun)" d="M0 0h1600v900H0Z"/><path fill="url(#haze)" d="M0 0h1600v900H0Z"/><g opacity=".58"><path fill="#0b2f44" d="M0 430c200-20 360 0 520-10s300 10 460 0 300 10 620-4v52H0Z" opacity=".18"/><path fill="url(#skylineFade)" d="M0 438c220-8 380 12 540 0s280 18 440 2 300 18 620 2v34H0Z"/></g><path fill="url(#water)" d="M0 450h1600v450H0Z"/><g fill="#fff" filter="url(#waves)" opacity=".4"><path d="M-40 520c160-30 260 40 420 8s270 37 440 2 270 45 420 5 240 40 400-5v290H-40Z" opacity=".22"/><path d="M-40 610c160-30 280 40 460 5s300 55 480 0 300 80 500 10c120-40 180 35 240 15v260H-40Z" opacity=".12"/></g><g stroke="#fff" stroke-linecap="round" opacity=".16"><path stroke-width="11" d="M220 540c240-20 460 20 680 0"/><path stroke-width="9" d="M960 610c160-20 360 20 520 0"/><path stroke-width="8" d="M340 700c180-24 320 20 500 0"/></g><path d="M0 0h1600v900H0Z" filter="url(#grain)" opacity=".9"/><path fill="url(#vignette)" d="M0 0h1600v900H0Z"/></svg>