<?xml version="1.0" encoding="UTF-8"?>
<svg xmlns="http://www.w3.org/2000/svg" width="1600" height="900" viewBox="0 0 1600 900" preserveAspectRatio="xMidYMid slice">
  <defs>
    <linearGradient id="sky" x1="0" y1="0" x2="0" y2="1">
      <stop offset="0" stop-color="#eaf6ff"/>
      <stop offset="0.42" stop-color="#d9f1ff"/>
      <stop offset="0.78" stop-color="#bfe7ff"/>
      <stop offset="1" stop-color="#a3d8fb"/>
    </linearGradient>

    <linearGradient id="water" x1="0" y1="0" x2="0" y2="1">
      <stop offset="0" stop-color="#1c86b5" stop-opacity="0.84"/>
      <stop offset="0.46" stop-color="#0f5f88" stop-opacity="0.92"/>
      <stop offset="1" stop-color="#083b5a" stop-opacity="0.98"/>
    </linearGradient>

    <radialGradient id="sun" cx="0" cy="0" r="1" gradientUnits="userSpaceOnUse" gradientTransform="translate(1240 170) scale(240)">
      <stop offset="0" stop-color="#fff7d6" stop-opacity="0.96"/>
      <stop offset="0.34" stop-color="#ffe6a3" stop-opacity="0.7"/>
      <stop offset="1" stop-color="#ffd27a" stop-opacity="0"/>
    </radialGradient>

    <radialGradient id="haze" cx="50%" cy="18%" r="70%">
      <stop offset="0" stop-color="#ffffff" stop-opacity="0.55"/>
      <stop offset="0.55" stop-color="#ffffff" stop-opacity="0.16"/>
      <stop offset="1" stop-color="#ffffff" stop-opacity="0"/>
    </radialGradient>

    <filter id="grain" x="-20%" y="-20%" width="140%" height="140%">
      <feTurbulence type="fractalNoise" baseFrequency="0.8" numOctaves="3" stitchTiles="stitch" seed="7"/>
      <feColorMatrix type="matrix" values="0 0 0 0 0
                                           0 0 0 0 0
                                           0 0 0 0 0
                                           0 0 0 0.26 0"/>
    </filter>

    <filter id="waves" x="-20%" y="-20%" width="140%" height="140%">
      <feTurbulence type="fractalNoise" baseFrequency="0.012" numOctaves="2" seed="11" result="noise"/>
      <feDisplacementMap in="SourceGraphic" in2="noise" scale="32" xChannelSelector="R" yChannelSelector="G"/>
    </filter>

    <linearGradient id="skylineFade" x1="0" y1="0" x2="0" y2="1">
      <stop offset="0" stop-color="#0b2f44" stop-opacity="0.32"/>
      <stop offset="1" stop-color="#0b2f44" stop-opacity="0"/>
    </linearGradient>

    <radialGradient id="vignette" cx="50%" cy="50%" r="74%">
      <stop offset="0" stop-color="#000" stop-opacity="0"/>
      <stop offset="0.68" stop-color="#000" stop-opacity="0.04"/>
      <stop offset="1" stop-color="#000" stop-opacity="0.16"/>
    </radialGradient>
  </defs>

  <!-- Sky -->
  <rect width="1600" height="900" fill="url(#sky)"/>

  <!-- Sun + haze -->
  <rect width="1600" height="900" fill="url(#sun)"/>
  <rect width="1600" height="900" fill="url(#haze)"/>

  <!-- Horizon / distant skyline band (subtle realism cue) -->
  <g opacity="0.58">
    <path d="M0,430 C200,410 360,430 520,420 C680,410 820,430 980,420 C1140,410 1280,430 1600,416 L1600,468 L0,468 Z" fill="#0b2f44" opacity="0.18"/>
    <path d="M0,438 C220,430 380,450 540,438 C700,426 820,456 980,440 C1140,424 1280,458 1600,442 L1600,476 L0,476 Z" fill="url(#skylineFade)"/>
  </g>

  <!-- Water base -->
  <rect y="450" width="1600" height="450" fill="url(#water)"/>

  <!-- Water texture -->
  <g filter="url(#waves)" opacity="0.40">
    <path d="M-40,520 C120,490 220,560 380,528 C540,496 650,565 820,530 C990,495 1090,575 1240,535 C1390,495 1480,575 1640,530 L1640,820 L-40,820 Z" fill="#ffffff" opacity="0.22"/>
    <path d="M-40,610 C120,580 240,650 420,615 C600,580 720,670 900,615 C1080,560 1200,695 1400,625 C1520,585 1580,660 1640,640 L1640,900 L-40,900 Z" fill="#ffffff" opacity="0.12"/>
  </g>

  <!-- Specular highlights -->
  <g opacity="0.16">
    <path d="M220,540 C460,520 680,560 900,540" stroke="#ffffff" stroke-width="11" stroke-linecap="round"/>
    <path d="M960,610 C1120,590 1320,630 1480,610" stroke="#ffffff" stroke-width="9" stroke-linecap="round"/>
    <path d="M340,700 C520,676 660,720 840,700" stroke="#ffffff" stroke-width="8" stroke-linecap="round"/>
  </g>

  <!-- Grain + vignette -->
  <rect width="1600" height="900" filter="url(#grain)" opacity="0.9"/>
  <rect width="1600" height="900" fill="url(#vignette)"/>
</svg>
